<svg id="visual" viewBox="0 0 960 300" width="960" height="300" xmlns="http://www.w3.org/2000/svg" xmlns:xlink="http://www.w3.org/1999/xlink" version="1.1"><path d="M0 104L17.8 101C35.7 98 71.3 92 106.8 99.5C142.3 107 177.7 128 213.2 130.8C248.7 133.7 284.3 118.3 320 113.3C355.7 108.3 391.3 113.7 426.8 124C462.3 134.3 497.7 149.7 533.2 139.8C568.7 130 604.3 95 640 92.7C675.7 90.3 711.3 120.7 746.8 124C782.3 127.3 817.7 103.7 853.2 90C888.7 76.3 924.3 72.7 942.2 70.8L960 69L960 301L942.2 301C924.3 301 888.7 301 853.2 301C817.7 301 782.3 301 746.8 301C711.3 301 675.7 301 640 301C604.3 301 568.7 301 533.2 301C497.7 301 462.3 301 426.8 301C391.3 301 355.7 301 320 301C284.3 301 248.7 301 213.2 301C177.7 301 142.3 301 106.8 301C71.3 301 35.7 301 17.8 301L0 301Z" fill="#8787a3"></path><path d="M0 178L17.8 175.7C35.7 173.3 71.3 168.7 106.8 172.3C142.3 176 177.7 188 213.2 187.5C248.7 187 284.3 174 320 165.8C355.7 157.7 391.3 154.3 426.8 150.8C462.3 147.3 497.7 143.7 533.2 151.2C568.7 158.7 604.3 177.3 640 177.2C675.7 177 711.3 158 746.8 148.3C782.3 138.7 817.7 138.3 853.2 139.2C888.7 140 924.3 142 942.2 143L960 144L960 301L942.2 301C924.3 301 888.7 301 853.2 301C817.7 301 782.3 301 746.8 301C711.3 301 675.7 301 640 301C604.3 301 568.7 301 533.2 301C497.7 301 462.3 301 426.8 301C391.3 301 355.7 301 320 301C284.3 301 248.7 301 213.2 301C177.7 301 142.3 301 106.8 301C71.3 301 35.7 301 17.8 301L0 301Z" fill="#a8a8bf"></path><path d="M0 156L17.8 158.5C35.7 161 71.3 166 106.8 177.3C142.3 188.7 177.7 206.3 213.2 204C248.7 201.7 284.3 179.3 320 175.8C355.7 172.3 391.3 187.7 426.8 191.3C462.3 195 497.7 187 533.2 184.3C568.7 181.7 604.3 184.3 640 191.3C675.7 198.3 711.3 209.7 746.8 217.5C782.3 225.3 817.7 229.7 853.2 219.2C888.7 208.7 924.3 183.3 942.2 170.7L960 158L960 301L942.2 301C924.3 301 888.7 301 853.2 301C817.7 301 782.3 301 746.8 301C711.3 301 675.7 301 640 301C604.3 301 568.7 301 533.2 301C497.7 301 462.3 301 426.8 301C391.3 301 355.7 301 320 301C284.3 301 248.7 301 213.2 301C177.7 301 142.3 301 106.8 301C71.3 301 35.7 301 17.8 301L0 301Z" fill="#cacadc"></path><path d="M0 255L17.8 248.8C35.7 242.7 71.3 230.3 106.8 225.3C142.3 220.3 177.7 222.7 213.2 225.5C248.7 228.3 284.3 231.7 320 233.3C355.7 235 391.3 235 426.8 232.7C462.3 230.3 497.7 225.7 533.2 221.5C568.7 217.3 604.3 213.7 640 219.7C675.7 225.7 711.3 241.3 746.8 242.3C782.3 243.3 817.7 229.7 853.2 228.5C888.7 227.3 924.3 238.7 942.2 244.3L960 250L960 301L942.2 301C924.3 301 888.7 301 853.2 301C817.7 301 782.3 301 746.8 301C711.3 301 675.7 301 640 301C604.3 301 568.7 301 533.2 301C497.7 301 462.3 301 426.8 301C391.3 301 355.7 301 320 301C284.3 301 248.7 301 213.2 301C177.7 301 142.3 301 106.8 301C71.3 301 35.7 301 17.8 301L0 301Z" fill="#ededf9"></path></svg>