<svg id="visual" viewBox="0 0 960 300" width="960" height="300" xmlns="http://www.w3.org/2000/svg" xmlns:xlink="http://www.w3.org/1999/xlink" version="1.1"><path d="M0 52L8.8 86.3C17.7 120.7 35.3 189.3 53.2 210.8C71 232.3 89 206.7 106.8 169.3C124.7 132 142.3 83 160 86.2C177.7 89.3 195.3 144.7 213.2 157.5C231 170.3 249 140.7 266.8 134C284.7 127.3 302.3 143.7 320 157.8C337.7 172 355.3 184 373.2 177C391 170 409 144 426.8 127.2C444.7 110.3 462.3 102.7 480 127.2C497.7 151.7 515.3 208.3 533.2 222.8C551 237.3 569 209.7 586.8 200.3C604.7 191 622.3 200 640 199.5C657.7 199 675.3 189 693.2 188.5C711 188 729 197 746.8 194.3C764.7 191.7 782.3 177.3 800 168.8C817.7 160.3 835.3 157.7 853.2 163.8C871 170 889 185 906.8 193C924.7 201 942.3 202 951.2 202.5L960 203L960 301L951.2 301C942.3 301 924.7 301 906.8 301C889 301 871 301 853.2 301C835.3 301 817.7 301 800 301C782.3 301 764.7 301 746.8 301C729 301 711 301 693.2 301C675.3 301 657.7 301 640 301C622.3 301 604.7 301 586.8 301C569 301 551 301 533.2 301C515.3 301 497.7 301 480 301C462.3 301 444.7 301 426.8 301C409 301 391 301 373.2 301C355.3 301 337.7 301 320 301C302.3 301 284.7 301 266.8 301C249 301 231 301 213.2 301C195.3 301 177.7 301 160 301C142.3 301 124.7 301 106.8 301C89 301 71 301 53.2 301C35.3 301 17.7 301 8.8 301L0 301Z" fill="#ededf9"></path><path d="M0 121L8.8 113.8C17.7 106.7 35.3 92.3 53.2 87.5C71 82.7 89 87.3 106.8 94.7C124.7 102 142.3 112 160 115.2C177.7 118.3 195.3 114.7 213.2 123.2C231 131.7 249 152.3 266.8 166C284.7 179.7 302.3 186.3 320 180.2C337.7 174 355.3 155 373.2 141.5C391 128 409 120 426.8 133C444.7 146 462.3 180 480 173.7C497.7 167.3 515.3 120.7 533.2 119.8C551 119 569 164 586.8 197.2C604.7 230.3 622.3 251.7 640 260C657.7 268.3 675.3 263.7 693.2 250.2C711 236.7 729 214.3 746.8 216C764.7 217.7 782.3 243.3 800 231.8C817.7 220.3 835.3 171.7 853.2 172.3C871 173 889 223 906.8 228.3C924.7 233.7 942.3 194.3 951.2 174.7L960 155L960 301L951.2 301C942.3 301 924.7 301 906.8 301C889 301 871 301 853.2 301C835.3 301 817.7 301 800 301C782.3 301 764.7 301 746.8 301C729 301 711 301 693.2 301C675.3 301 657.7 301 640 301C622.3 301 604.7 301 586.8 301C569 301 551 301 533.2 301C515.3 301 497.7 301 480 301C462.3 301 444.7 301 426.8 301C409 301 391 301 373.2 301C355.3 301 337.7 301 320 301C302.3 301 284.7 301 266.8 301C249 301 231 301 213.2 301C195.3 301 177.7 301 160 301C142.3 301 124.7 301 106.8 301C89 301 71 301 53.2 301C35.3 301 17.7 301 8.8 301L0 301Z" fill="#e3eafb"></path><path d="M0 122L8.8 131.5C17.7 141 35.3 160 53.2 178.7C71 197.3 89 215.7 106.8 219.2C124.7 222.7 142.3 211.3 160 215.2C177.7 219 195.3 238 213.2 236C231 234 249 211 266.8 197.3C284.7 183.7 302.3 179.3 320 188.8C337.7 198.3 355.3 221.7 373.2 213.7C391 205.7 409 166.3 426.8 169.5C444.7 172.7 462.3 218.3 480 231.8C497.7 245.3 515.3 226.7 533.2 225C551 223.3 569 238.7 586.8 229.5C604.7 220.3 622.3 186.7 640 177.2C657.7 167.7 675.3 182.3 693.2 182.2C711 182 729 167 746.8 157C764.7 147 782.3 142 800 140.3C817.7 138.7 835.3 140.3 853.2 146.7C871 153 889 164 906.8 165.5C924.7 167 942.3 159 951.2 155L960 151L960 301L951.2 301C942.3 301 924.7 301 906.8 301C889 301 871 301 853.2 301C835.3 301 817.7 301 800 301C782.3 301 764.7 301 746.8 301C729 301 711 301 693.2 301C675.3 301 657.7 301 640 301C622.3 301 604.7 301 586.8 301C569 301 551 301 533.2 301C515.3 301 497.7 301 480 301C462.3 301 444.7 301 426.8 301C409 301 391 301 373.2 301C355.3 301 337.7 301 320 301C302.3 301 284.7 301 266.8 301C249 301 231 301 213.2 301C195.3 301 177.7 301 160 301C142.3 301 124.7 301 106.8 301C89 301 71 301 53.2 301C35.3 301 17.7 301 8.8 301L0 301Z" fill="#d6e9fb"></path><path d="M0 157L8.8 174.7C17.7 192.3 35.3 227.7 53.2 241.2C71 254.7 89 246.3 106.8 227C124.7 207.7 142.3 177.3 160 170.3C177.7 163.3 195.3 179.7 213.2 189.5C231 199.3 249 202.7 266.8 205.5C284.7 208.3 302.3 210.7 320 222.3C337.7 234 355.3 255 373.2 260.8C391 266.7 409 257.3 426.8 244.3C444.7 231.3 462.3 214.7 480 219.2C497.7 223.7 515.3 249.3 533.2 263C551 276.7 569 278.3 586.8 277.5C604.7 276.7 622.3 273.3 640 271.8C657.7 270.3 675.3 270.7 693.2 271C711 271.3 729 271.7 746.8 253.5C764.7 235.3 782.3 198.7 800 188.2C817.7 177.7 835.3 193.3 853.2 192C871 190.7 889 172.3 906.8 168.3C924.7 164.3 942.3 174.7 951.2 179.8L960 185L960 301L951.2 301C942.3 301 924.7 301 906.8 301C889 301 871 301 853.2 301C835.3 301 817.7 301 800 301C782.3 301 764.7 301 746.8 301C729 301 711 301 693.2 301C675.3 301 657.7 301 640 301C622.3 301 604.7 301 586.8 301C569 301 551 301 533.2 301C515.3 301 497.7 301 480 301C462.3 301 444.7 301 426.8 301C409 301 391 301 373.2 301C355.3 301 337.7 301 320 301C302.3 301 284.7 301 266.8 301C249 301 231 301 213.2 301C195.3 301 177.7 301 160 301C142.3 301 124.7 301 106.8 301C89 301 71 301 53.2 301C35.3 301 17.7 301 8.8 301L0 301Z" fill="#c8e7f8"></path><path d="M0 210L8.8 207.7C17.7 205.3 35.3 200.7 53.2 203.8C71 207 89 218 106.8 220C124.7 222 142.3 215 160 216.5C177.7 218 195.3 228 213.2 228.3C231 228.7 249 219.3 266.8 223.3C284.7 227.3 302.3 244.7 320 250.7C337.7 256.7 355.3 251.3 373.2 245.2C391 239 409 232 426.8 226.2C444.7 220.3 462.3 215.7 480 218.3C497.7 221 515.3 231 533.2 243C551 255 569 269 586.8 267.3C604.7 265.7 622.3 248.3 640 233.7C657.7 219 675.3 207 693.2 206.2C711 205.3 729 215.7 746.8 228.7C764.7 241.7 782.3 257.3 800 251C817.7 244.7 835.3 216.3 853.2 215.3C871 214.3 889 240.7 906.8 255.5C924.7 270.3 942.3 273.7 951.2 275.3L960 277L960 301L951.2 301C942.3 301 924.7 301 906.8 301C889 301 871 301 853.2 301C835.3 301 817.7 301 800 301C782.3 301 764.7 301 746.8 301C729 301 711 301 693.2 301C675.3 301 657.7 301 640 301C622.3 301 604.7 301 586.8 301C569 301 551 301 533.2 301C515.3 301 497.7 301 480 301C462.3 301 444.7 301 426.8 301C409 301 391 301 373.2 301C355.3 301 337.7 301 320 301C302.3 301 284.7 301 266.8 301C249 301 231 301 213.2 301C195.3 301 177.7 301 160 301C142.3 301 124.7 301 106.8 301C89 301 71 301 53.2 301C35.3 301 17.7 301 8.8 301L0 301Z" fill="#b9e6f2"></path><path d="M0 229L8.8 235.5C17.7 242 35.3 255 53.2 254.8C71 254.7 89 241.3 106.8 242.5C124.7 243.7 142.3 259.3 160 260.7C177.7 262 195.3 249 213.2 247.8C231 246.7 249 257.3 266.8 262.8C284.7 268.3 302.3 268.7 320 271.8C337.7 275 355.3 281 373.2 276.3C391 271.7 409 256.3 426.8 247.3C444.7 238.3 462.3 235.7 480 237.5C497.7 239.3 515.3 245.7 533.2 253.5C551 261.3 569 270.7 586.8 275C604.7 279.3 622.3 278.7 640 276.3C657.7 274 675.3 270 693.2 266.8C711 263.7 729 261.3 746.8 254C764.7 246.7 782.3 234.3 800 229.5C817.7 224.7 835.3 227.3 853.2 236.2C871 245 889 260 906.8 259.7C924.7 259.3 942.3 243.7 951.2 235.8L960 228L960 301L951.2 301C942.3 301 924.7 301 906.8 301C889 301 871 301 853.2 301C835.3 301 817.7 301 800 301C782.3 301 764.7 301 746.8 301C729 301 711 301 693.2 301C675.3 301 657.7 301 640 301C622.3 301 604.7 301 586.8 301C569 301 551 301 533.2 301C515.3 301 497.7 301 480 301C462.3 301 444.7 301 426.8 301C409 301 391 301 373.2 301C355.3 301 337.7 301 320 301C302.3 301 284.7 301 266.8 301C249 301 231 301 213.2 301C195.3 301 177.7 301 160 301C142.3 301 124.7 301 106.8 301C89 301 71 301 53.2 301C35.3 301 17.7 301 8.8 301L0 301Z" fill="#aee5e8"></path></svg>