<svg id="visual" viewBox="0 0 960 300" width="960" height="300" xmlns="http://www.w3.org/2000/svg" xmlns:xlink="http://www.w3.org/1999/xlink" version="1.1"><path d="M0 106L8.8 96.2C17.7 86.3 35.3 66.7 53.2 75.8C71 85 89 123 106.8 132.2C124.7 141.3 142.3 121.7 160 130.5C177.7 139.3 195.3 176.7 213.2 196C231 215.3 249 216.7 266.8 187.3C284.7 158 302.3 98 320 83C337.7 68 355.3 98 373.2 130.3C391 162.7 409 197.3 426.8 206C444.7 214.7 462.3 197.3 480 173C497.7 148.7 515.3 117.3 533.2 108.3C551 99.3 569 112.7 586.8 114.7C604.7 116.7 622.3 107.3 640 94.3C657.7 81.3 675.3 64.7 693.2 60.8C711 57 729 66 746.8 88.3C764.7 110.7 782.3 146.3 800 175.7C817.7 205 835.3 228 853.2 210.8C871 193.7 889 136.3 906.8 123.7C924.7 111 942.3 143 951.2 159L960 175L960 301L951.2 301C942.3 301 924.7 301 906.8 301C889 301 871 301 853.2 301C835.3 301 817.7 301 800 301C782.3 301 764.7 301 746.8 301C729 301 711 301 693.2 301C675.3 301 657.7 301 640 301C622.3 301 604.7 301 586.8 301C569 301 551 301 533.2 301C515.3 301 497.7 301 480 301C462.3 301 444.7 301 426.8 301C409 301 391 301 373.2 301C355.3 301 337.7 301 320 301C302.3 301 284.7 301 266.8 301C249 301 231 301 213.2 301C195.3 301 177.7 301 160 301C142.3 301 124.7 301 106.8 301C89 301 71 301 53.2 301C35.3 301 17.7 301 8.8 301L0 301Z" fill="#aee5e8"></path><path d="M0 105L8.8 124.5C17.7 144 35.3 183 53.2 200C71 217 89 212 106.8 197.8C124.7 183.7 142.3 160.3 160 137.7C177.7 115 195.3 93 213.2 90C231 87 249 103 266.8 104.3C284.7 105.7 302.3 92.3 320 94.8C337.7 97.3 355.3 115.7 373.2 115.2C391 114.7 409 95.3 426.8 115.7C444.7 136 462.3 196 480 200.2C497.7 204.3 515.3 152.7 533.2 129.3C551 106 569 111 586.8 132.5C604.7 154 622.3 192 640 195C657.7 198 675.3 166 693.2 154C711 142 729 150 746.8 163.7C764.7 177.3 782.3 196.7 800 202C817.7 207.3 835.3 198.7 853.2 186.3C871 174 889 158 906.8 157.7C924.7 157.3 942.3 172.7 951.2 180.3L960 188L960 301L951.2 301C942.3 301 924.7 301 906.8 301C889 301 871 301 853.2 301C835.3 301 817.7 301 800 301C782.3 301 764.7 301 746.8 301C729 301 711 301 693.2 301C675.3 301 657.7 301 640 301C622.3 301 604.7 301 586.8 301C569 301 551 301 533.2 301C515.3 301 497.7 301 480 301C462.3 301 444.7 301 426.8 301C409 301 391 301 373.2 301C355.3 301 337.7 301 320 301C302.3 301 284.7 301 266.8 301C249 301 231 301 213.2 301C195.3 301 177.7 301 160 301C142.3 301 124.7 301 106.8 301C89 301 71 301 53.2 301C35.3 301 17.7 301 8.8 301L0 301Z" fill="#a5deee"></path><path d="M0 246L8.8 235.5C17.7 225 35.3 204 53.2 185.3C71 166.7 89 150.3 106.8 141.3C124.7 132.3 142.3 130.7 160 153.8C177.7 177 195.3 225 213.2 246.3C231 267.7 249 262.3 266.8 235.3C284.7 208.3 302.3 159.7 320 142.5C337.7 125.3 355.3 139.7 373.2 140C391 140.3 409 126.7 426.8 138C444.7 149.3 462.3 185.7 480 210.5C497.7 235.3 515.3 248.7 533.2 232.2C551 215.7 569 169.3 586.8 145C604.7 120.7 622.3 118.3 640 119.2C657.7 120 675.3 124 693.2 139.5C711 155 729 182 746.8 193.3C764.7 204.7 782.3 200.3 800 196.8C817.7 193.3 835.3 190.7 853.2 185.5C871 180.3 889 172.7 906.8 169.8C924.7 167 942.3 169 951.2 170L960 171L960 301L951.2 301C942.3 301 924.7 301 906.8 301C889 301 871 301 853.2 301C835.3 301 817.7 301 800 301C782.3 301 764.7 301 746.8 301C729 301 711 301 693.2 301C675.3 301 657.7 301 640 301C622.3 301 604.7 301 586.8 301C569 301 551 301 533.2 301C515.3 301 497.7 301 480 301C462.3 301 444.7 301 426.8 301C409 301 391 301 373.2 301C355.3 301 337.7 301 320 301C302.3 301 284.7 301 266.8 301C249 301 231 301 213.2 301C195.3 301 177.7 301 160 301C142.3 301 124.7 301 106.8 301C89 301 71 301 53.2 301C35.3 301 17.7 301 8.8 301L0 301Z" fill="#a4d5f3"></path><path d="M0 162L8.8 165C17.7 168 35.3 174 53.2 188.7C71 203.3 89 226.7 106.8 224.2C124.7 221.7 142.3 193.3 160 191.2C177.7 189 195.3 213 213.2 220.2C231 227.3 249 217.7 266.8 223.3C284.7 229 302.3 250 320 247.2C337.7 244.3 355.3 217.7 373.2 213.8C391 210 409 229 426.8 240.7C444.7 252.3 462.3 256.7 480 241.5C497.7 226.3 515.3 191.7 533.2 174.8C551 158 569 159 586.8 174.8C604.7 190.7 622.3 221.3 640 240.7C657.7 260 675.3 268 693.2 261.2C711 254.3 729 232.7 746.8 217.7C764.7 202.7 782.3 194.3 800 194.5C817.7 194.7 835.3 203.3 853.2 200.7C871 198 889 184 906.8 188.2C924.7 192.3 942.3 214.7 951.2 225.8L960 237L960 301L951.2 301C942.3 301 924.7 301 906.8 301C889 301 871 301 853.2 301C835.3 301 817.7 301 800 301C782.3 301 764.7 301 746.8 301C729 301 711 301 693.2 301C675.3 301 657.7 301 640 301C622.3 301 604.7 301 586.8 301C569 301 551 301 533.2 301C515.3 301 497.7 301 480 301C462.3 301 444.7 301 426.8 301C409 301 391 301 373.2 301C355.3 301 337.7 301 320 301C302.3 301 284.7 301 266.8 301C249 301 231 301 213.2 301C195.3 301 177.7 301 160 301C142.3 301 124.7 301 106.8 301C89 301 71 301 53.2 301C35.3 301 17.7 301 8.8 301L0 301Z" fill="#abcbf3"></path><path d="M0 217L8.8 223.8C17.7 230.7 35.3 244.3 53.2 238.7C71 233 89 208 106.8 204C124.7 200 142.3 217 160 221.5C177.7 226 195.3 218 213.2 219.7C231 221.3 249 232.7 266.8 239C284.7 245.3 302.3 246.7 320 243.7C337.7 240.7 355.3 233.3 373.2 224.8C391 216.3 409 206.7 426.8 198.7C444.7 190.7 462.3 184.3 480 196.7C497.7 209 515.3 240 533.2 250.8C551 261.7 569 252.3 586.8 241.5C604.7 230.7 622.3 218.3 640 206.3C657.7 194.3 675.3 182.7 693.2 180.5C711 178.3 729 185.7 746.8 186.2C764.7 186.7 782.3 180.3 800 182C817.7 183.7 835.3 193.3 853.2 200.8C871 208.3 889 213.7 906.8 223.7C924.7 233.7 942.3 248.3 951.2 255.7L960 263L960 301L951.2 301C942.3 301 924.7 301 906.8 301C889 301 871 301 853.2 301C835.3 301 817.7 301 800 301C782.3 301 764.7 301 746.8 301C729 301 711 301 693.2 301C675.3 301 657.7 301 640 301C622.3 301 604.7 301 586.8 301C569 301 551 301 533.2 301C515.3 301 497.7 301 480 301C462.3 301 444.7 301 426.8 301C409 301 391 301 373.2 301C355.3 301 337.7 301 320 301C302.3 301 284.7 301 266.8 301C249 301 231 301 213.2 301C195.3 301 177.7 301 160 301C142.3 301 124.7 301 106.8 301C89 301 71 301 53.2 301C35.3 301 17.7 301 8.8 301L0 301Z" fill="#b8c0ee"></path><path d="M0 209L8.8 211C17.7 213 35.3 217 53.2 216.8C71 216.7 89 212.3 106.8 213.8C124.7 215.3 142.3 222.7 160 231.2C177.7 239.7 195.3 249.3 213.2 244.8C231 240.3 249 221.7 266.8 219C284.7 216.3 302.3 229.7 320 232.5C337.7 235.3 355.3 227.7 373.2 225.8C391 224 409 228 426.8 230.5C444.7 233 462.3 234 480 230.7C497.7 227.3 515.3 219.7 533.2 224C551 228.3 569 244.7 586.8 256.2C604.7 267.7 622.3 274.3 640 268.8C657.7 263.3 675.3 245.7 693.2 243.5C711 241.3 729 254.7 746.8 261.5C764.7 268.3 782.3 268.7 800 271C817.7 273.3 835.3 277.7 853.2 277.3C871 277 889 272 906.8 259.5C924.7 247 942.3 227 951.2 217L960 207L960 301L951.2 301C942.3 301 924.7 301 906.8 301C889 301 871 301 853.2 301C835.3 301 817.7 301 800 301C782.3 301 764.7 301 746.8 301C729 301 711 301 693.2 301C675.3 301 657.7 301 640 301C622.3 301 604.7 301 586.8 301C569 301 551 301 533.2 301C515.3 301 497.7 301 480 301C462.3 301 444.7 301 426.8 301C409 301 391 301 373.2 301C355.3 301 337.7 301 320 301C302.3 301 284.7 301 266.8 301C249 301 231 301 213.2 301C195.3 301 177.7 301 160 301C142.3 301 124.7 301 106.8 301C89 301 71 301 53.2 301C35.3 301 17.7 301 8.8 301L0 301Z" fill="#c8b3e3"></path><path d="M0 273L8.8 267.2C17.7 261.3 35.3 249.7 53.2 247.5C71 245.3 89 252.7 106.8 253.2C124.7 253.7 142.3 247.3 160 251.7C177.7 256 195.3 271 213.2 275.5C231 280 249 274 266.8 265.3C284.7 256.7 302.3 245.3 320 239.3C337.7 233.3 355.3 232.7 373.2 232.8C391 233 409 234 426.8 236.5C444.7 239 462.3 243 480 248C497.7 253 515.3 259 533.2 265.8C551 272.7 569 280.3 586.8 280.8C604.7 281.3 622.3 274.7 640 272.2C657.7 269.7 675.3 271.3 693.2 272.7C711 274 729 275 746.8 272.7C764.7 270.3 782.3 264.7 800 259.2C817.7 253.7 835.3 248.3 853.2 245C871 241.7 889 240.3 906.8 247.3C924.7 254.3 942.3 269.7 951.2 277.3L960 285L960 301L951.2 301C942.3 301 924.7 301 906.8 301C889 301 871 301 853.2 301C835.3 301 817.7 301 800 301C782.3 301 764.7 301 746.8 301C729 301 711 301 693.2 301C675.3 301 657.7 301 640 301C622.3 301 604.7 301 586.8 301C569 301 551 301 533.2 301C515.3 301 497.7 301 480 301C462.3 301 444.7 301 426.8 301C409 301 391 301 373.2 301C355.3 301 337.7 301 320 301C302.3 301 284.7 301 266.8 301C249 301 231 301 213.2 301C195.3 301 177.7 301 160 301C142.3 301 124.7 301 106.8 301C89 301 71 301 53.2 301C35.3 301 17.7 301 8.8 301L0 301Z" fill="#d6a7d1"></path></svg>