<svg id="visual" viewBox="0 0 960 300" width="960" height="300" xmlns="http://www.w3.org/2000/svg" xmlns:xlink="http://www.w3.org/1999/xlink" version="1.1"><path d="M0 110L8.8 107.2C17.7 104.3 35.3 98.7 53.2 85.2C71 71.7 89 50.3 106.8 46.5C124.7 42.7 142.3 56.3 160 75.8C177.7 95.3 195.3 120.7 213.2 116.7C231 112.7 249 79.3 266.8 65.2C284.7 51 302.3 56 320 63.8C337.7 71.7 355.3 82.3 373.2 72.2C391 62 409 31 426.8 15.7C444.7 0.3 462.3 0.7 480 27.8C497.7 55 515.3 109 533.2 117.3C551 125.7 569 88.3 586.8 69.8C604.7 51.3 622.3 51.7 640 50.2C657.7 48.7 675.3 45.3 693.2 57.7C711 70 729 98 746.8 112.3C764.7 126.7 782.3 127.3 800 132.7C817.7 138 835.3 148 853.2 152.8C871 157.7 889 157.3 906.8 150C924.7 142.7 942.3 128.3 951.2 121.2L960 114L960 301L951.2 301C942.3 301 924.7 301 906.8 301C889 301 871 301 853.2 301C835.3 301 817.7 301 800 301C782.3 301 764.7 301 746.8 301C729 301 711 301 693.2 301C675.3 301 657.7 301 640 301C622.3 301 604.7 301 586.8 301C569 301 551 301 533.2 301C515.3 301 497.7 301 480 301C462.3 301 444.7 301 426.8 301C409 301 391 301 373.2 301C355.3 301 337.7 301 320 301C302.3 301 284.7 301 266.8 301C249 301 231 301 213.2 301C195.3 301 177.7 301 160 301C142.3 301 124.7 301 106.8 301C89 301 71 301 53.2 301C35.3 301 17.7 301 8.8 301L0 301Z" fill="#d6a7d1"></path><path d="M0 184L8.8 173.5C17.7 163 35.3 142 53.2 132.8C71 123.7 89 126.3 106.8 122.2C124.7 118 142.3 107 160 107.2C177.7 107.3 195.3 118.7 213.2 121.2C231 123.7 249 117.3 266.8 125.3C284.7 133.3 302.3 155.7 320 157.7C337.7 159.7 355.3 141.3 373.2 140C391 138.7 409 154.3 426.8 155.8C444.7 157.3 462.3 144.7 480 141.3C497.7 138 515.3 144 533.2 133C551 122 569 94 586.8 96.8C604.7 99.7 622.3 133.3 640 133C657.7 132.7 675.3 98.3 693.2 79C711 59.7 729 55.3 746.8 62.8C764.7 70.3 782.3 89.7 800 105.7C817.7 121.7 835.3 134.3 853.2 140.7C871 147 889 147 906.8 144.5C924.7 142 942.3 137 951.2 134.5L960 132L960 301L951.2 301C942.3 301 924.7 301 906.8 301C889 301 871 301 853.2 301C835.3 301 817.7 301 800 301C782.3 301 764.7 301 746.8 301C729 301 711 301 693.2 301C675.3 301 657.7 301 640 301C622.3 301 604.7 301 586.8 301C569 301 551 301 533.2 301C515.3 301 497.7 301 480 301C462.3 301 444.7 301 426.8 301C409 301 391 301 373.2 301C355.3 301 337.7 301 320 301C302.3 301 284.7 301 266.8 301C249 301 231 301 213.2 301C195.3 301 177.7 301 160 301C142.3 301 124.7 301 106.8 301C89 301 71 301 53.2 301C35.3 301 17.7 301 8.8 301L0 301Z" fill="#c8b8e6"></path><path d="M0 205L8.8 193C17.7 181 35.3 157 53.2 151.3C71 145.7 89 158.3 106.8 163.3C124.7 168.3 142.3 165.7 160 166.8C177.7 168 195.3 173 213.2 171C231 169 249 160 266.8 149.2C284.7 138.3 302.3 125.7 320 130.3C337.7 135 355.3 157 373.2 165.3C391 173.7 409 168.3 426.8 159.2C444.7 150 462.3 137 480 142.7C497.7 148.3 515.3 172.7 533.2 172.2C551 171.7 569 146.3 586.8 138.2C604.7 130 622.3 139 640 135C657.7 131 675.3 114 693.2 106.5C711 99 729 101 746.8 114C764.7 127 782.3 151 800 146.8C817.7 142.7 835.3 110.3 853.2 108.2C871 106 889 134 906.8 137.2C924.7 140.3 942.3 118.7 951.2 107.8L960 97L960 301L951.2 301C942.3 301 924.7 301 906.8 301C889 301 871 301 853.2 301C835.3 301 817.7 301 800 301C782.3 301 764.7 301 746.8 301C729 301 711 301 693.2 301C675.3 301 657.7 301 640 301C622.3 301 604.7 301 586.8 301C569 301 551 301 533.2 301C515.3 301 497.7 301 480 301C462.3 301 444.7 301 426.8 301C409 301 391 301 373.2 301C355.3 301 337.7 301 320 301C302.3 301 284.7 301 266.8 301C249 301 231 301 213.2 301C195.3 301 177.7 301 160 301C142.3 301 124.7 301 106.8 301C89 301 71 301 53.2 301C35.3 301 17.7 301 8.8 301L0 301Z" fill="#bbc8f2"></path><path d="M0 190L8.8 182.8C17.7 175.7 35.3 161.3 53.2 161.3C71 161.3 89 175.7 106.8 177C124.7 178.3 142.3 166.7 160 160C177.7 153.3 195.3 151.7 213.2 147C231 142.3 249 134.7 266.8 131.8C284.7 129 302.3 131 320 137.5C337.7 144 355.3 155 373.2 161.5C391 168 409 170 426.8 171.2C444.7 172.3 462.3 172.7 480 173.7C497.7 174.7 515.3 176.3 533.2 170.3C551 164.3 569 150.7 586.8 153.2C604.7 155.7 622.3 174.3 640 184.7C657.7 195 675.3 197 693.2 198.7C711 200.3 729 201.7 746.8 187.8C764.7 174 782.3 145 800 144.5C817.7 144 835.3 172 853.2 185.2C871 198.3 889 196.7 906.8 193.2C924.7 189.7 942.3 184.3 951.2 181.7L960 179L960 301L951.2 301C942.3 301 924.7 301 906.8 301C889 301 871 301 853.2 301C835.3 301 817.7 301 800 301C782.3 301 764.7 301 746.8 301C729 301 711 301 693.2 301C675.3 301 657.7 301 640 301C622.3 301 604.7 301 586.8 301C569 301 551 301 533.2 301C515.3 301 497.7 301 480 301C462.3 301 444.7 301 426.8 301C409 301 391 301 373.2 301C355.3 301 337.7 301 320 301C302.3 301 284.7 301 266.8 301C249 301 231 301 213.2 301C195.3 301 177.7 301 160 301C142.3 301 124.7 301 106.8 301C89 301 71 301 53.2 301C35.3 301 17.7 301 8.8 301L0 301Z" fill="#b4d7f7"></path><path d="M0 171L8.8 174.7C17.7 178.3 35.3 185.7 53.2 187.7C71 189.7 89 186.3 106.8 182.5C124.7 178.7 142.3 174.3 160 185.7C177.7 197 195.3 224 213.2 232.7C231 241.3 249 231.7 266.8 216.2C284.7 200.7 302.3 179.3 320 181.8C337.7 184.3 355.3 210.7 373.2 209.3C391 208 409 179 426.8 172.2C444.7 165.3 462.3 180.7 480 182.8C497.7 185 515.3 174 533.2 171.2C551 168.3 569 173.7 586.8 179.8C604.7 186 622.3 193 640 191.8C657.7 190.7 675.3 181.3 693.2 186.3C711 191.3 729 210.7 746.8 209.3C764.7 208 782.3 186 800 186.2C817.7 186.3 835.3 208.7 853.2 218.5C871 228.3 889 225.7 906.8 227.8C924.7 230 942.3 237 951.2 240.5L960 244L960 301L951.2 301C942.3 301 924.7 301 906.8 301C889 301 871 301 853.2 301C835.3 301 817.7 301 800 301C782.3 301 764.7 301 746.8 301C729 301 711 301 693.2 301C675.3 301 657.7 301 640 301C622.3 301 604.7 301 586.8 301C569 301 551 301 533.2 301C515.3 301 497.7 301 480 301C462.3 301 444.7 301 426.8 301C409 301 391 301 373.2 301C355.3 301 337.7 301 320 301C302.3 301 284.7 301 266.8 301C249 301 231 301 213.2 301C195.3 301 177.7 301 160 301C142.3 301 124.7 301 106.8 301C89 301 71 301 53.2 301C35.3 301 17.7 301 8.8 301L0 301Z" fill="#b8e4f6"></path><path d="M0 198L8.8 199C17.7 200 35.3 202 53.2 207.7C71 213.3 89 222.7 106.8 225.8C124.7 229 142.3 226 160 230.3C177.7 234.7 195.3 246.3 213.2 248C231 249.7 249 241.3 266.8 241.8C284.7 242.3 302.3 251.7 320 256.3C337.7 261 355.3 261 373.2 255.5C391 250 409 239 426.8 227.3C444.7 215.7 462.3 203.3 480 204.5C497.7 205.7 515.3 220.3 533.2 234.3C551 248.3 569 261.7 586.8 263.5C604.7 265.3 622.3 255.7 640 247.3C657.7 239 675.3 232 693.2 236C711 240 729 255 746.8 258.3C764.7 261.7 782.3 253.3 800 253.7C817.7 254 835.3 263 853.2 255.5C871 248 889 224 906.8 219.8C924.7 215.7 942.3 231.3 951.2 239.2L960 247L960 301L951.2 301C942.3 301 924.7 301 906.8 301C889 301 871 301 853.2 301C835.3 301 817.7 301 800 301C782.3 301 764.7 301 746.8 301C729 301 711 301 693.2 301C675.3 301 657.7 301 640 301C622.3 301 604.7 301 586.8 301C569 301 551 301 533.2 301C515.3 301 497.7 301 480 301C462.3 301 444.7 301 426.8 301C409 301 391 301 373.2 301C355.3 301 337.7 301 320 301C302.3 301 284.7 301 266.8 301C249 301 231 301 213.2 301C195.3 301 177.7 301 160 301C142.3 301 124.7 301 106.8 301C89 301 71 301 53.2 301C35.3 301 17.7 301 8.8 301L0 301Z" fill="#c5eff4"></path><path d="M0 246L8.8 252.7C17.7 259.3 35.3 272.7 53.2 270.2C71 267.7 89 249.3 106.8 240.2C124.7 231 142.3 231 160 232.2C177.7 233.3 195.3 235.7 213.2 240.5C231 245.3 249 252.7 266.8 256.3C284.7 260 302.3 260 320 261.2C337.7 262.3 355.3 264.7 373.2 260.5C391 256.3 409 245.7 426.8 247.5C444.7 249.3 462.3 263.7 480 263.5C497.7 263.3 515.3 248.7 533.2 245.5C551 242.3 569 250.7 586.8 260.5C604.7 270.3 622.3 281.7 640 287C657.7 292.3 675.3 291.7 693.2 292.2C711 292.7 729 294.3 746.8 285.3C764.7 276.3 782.3 256.7 800 245.7C817.7 234.7 835.3 232.3 853.2 230.8C871 229.3 889 228.7 906.8 234.3C924.7 240 942.3 252 951.2 258L960 264L960 301L951.2 301C942.3 301 924.7 301 906.8 301C889 301 871 301 853.2 301C835.3 301 817.7 301 800 301C782.3 301 764.7 301 746.8 301C729 301 711 301 693.2 301C675.3 301 657.7 301 640 301C622.3 301 604.7 301 586.8 301C569 301 551 301 533.2 301C515.3 301 497.7 301 480 301C462.3 301 444.7 301 426.8 301C409 301 391 301 373.2 301C355.3 301 337.7 301 320 301C302.3 301 284.7 301 266.8 301C249 301 231 301 213.2 301C195.3 301 177.7 301 160 301C142.3 301 124.7 301 106.8 301C89 301 71 301 53.2 301C35.3 301 17.7 301 8.8 301L0 301Z" fill="#d8f8f3"></path></svg>